<svg height="459pt" viewBox="-2 0 459 459.25997" width="459pt" xmlns="http://www.w3.org/2000/svg"><path d="m454.621094 419.261719c.015625 10.941406-4.472656 21.414062-12.410156 28.949219l-.410157-1.03125-132.261719-107.289063 145.082032-169.53125zm0 0" fill="#fedb41"/><path d="m146.140625 338.121094-134.441406 109.058594-.097657.101562c-7.363281-7.46875-11.484374-17.535156-11.472656-28.019531v-248.453125h.28125zm0 0" fill="#fedb41"/><path d="m309.539062 339.890625 132.261719 107.289063.410157 1.03125c-7.425782 7.105468-17.3125 11.066406-27.589844 11.050781h-374.492188c-10.734375.015625-21.023437-4.304688-28.527344-11.980469l.097657-.101562 134.441406-109.058594 54.960937-44.582032c14.847657-12.40625 36.449219-12.40625 51.296876 0zm0 0" fill="#00efd1"/><path d="m.410156 170.808594h-.28125v-.929688l189.042969-156.140625c22.175781-18.316406 54.238281-18.316406 76.417969 0l189.03125 156.140625v.480469l-145.082032 169.53125-57.140624-46.351563c-14.847657-12.40625-36.449219-12.40625-51.296876 0l-54.960937 44.582032zm0 0" fill="#00acea"/></svg>